<mxfile host="app.diagrams.net" modified="2024-06-24T05:21:41.207Z" agent="Mozilla/5.0 (Macintosh; Intel Mac OS X 10_15_7) AppleWebKit/537.36 (KHTML, like Gecko) Chrome/124.0.0.0 Safari/537.36" etag="tFjeamdSsYY7B2k9JR1v" version="24.6.2" type="device">
  <diagram name="Page-1" id="EWVo9KMrOYLQ7rxQZB0L">
    <mxGraphModel dx="502" dy="342" grid="1" gridSize="10" guides="1" tooltips="1" connect="1" arrows="1" fold="1" page="1" pageScale="1" pageWidth="1600" pageHeight="1200" math="0" shadow="0">
      <root>
        <mxCell id="0" />
        <mxCell id="1" parent="0" />
        <mxCell id="gXy3dXkLph7QK6x0H68i-1" value="Custom Quizzer" style="ellipse;whiteSpace=wrap;html=1;aspect=fixed;" parent="1" vertex="1">
          <mxGeometry x="420" y="280" width="130" height="130" as="geometry" />
        </mxCell>
        <mxCell id="gXy3dXkLph7QK6x0H68i-2" value="Excel File (Question Bank)" style="rounded=0;whiteSpace=wrap;html=1;" parent="1" vertex="1">
          <mxGeometry x="740" y="315" width="150" height="60" as="geometry" />
        </mxCell>
        <mxCell id="gXy3dXkLph7QK6x0H68i-4" value="" style="endArrow=classic;html=1;rounded=0;exitX=0;exitY=0.25;exitDx=0;exitDy=0;" parent="1" source="gXy3dXkLph7QK6x0H68i-2" edge="1">
          <mxGeometry width="50" height="50" relative="1" as="geometry">
            <mxPoint x="660" y="350" as="sourcePoint" />
            <mxPoint x="550" y="330" as="targetPoint" />
          </mxGeometry>
        </mxCell>
        <mxCell id="gXy3dXkLph7QK6x0H68i-7" value="&lt;font style=&quot;font-size: 10px;&quot;&gt;Passes in quiz data&lt;/font&gt;" style="text;html=1;align=center;verticalAlign=middle;whiteSpace=wrap;rounded=0;" parent="1" vertex="1">
          <mxGeometry x="580" y="280" width="160" height="50" as="geometry" />
        </mxCell>
        <mxCell id="gXy3dXkLph7QK6x0H68i-8" value="User" style="rounded=0;whiteSpace=wrap;html=1;" parent="1" vertex="1">
          <mxGeometry x="120" y="315" width="120" height="60" as="geometry" />
        </mxCell>
        <mxCell id="gXy3dXkLph7QK6x0H68i-9" value="" style="endArrow=classic;html=1;rounded=0;entryX=1;entryY=0.75;entryDx=0;entryDy=0;exitX=0.021;exitY=0.618;exitDx=0;exitDy=0;exitPerimeter=0;" parent="1" source="gXy3dXkLph7QK6x0H68i-1" target="gXy3dXkLph7QK6x0H68i-8" edge="1">
          <mxGeometry width="50" height="50" relative="1" as="geometry">
            <mxPoint x="510" y="280" as="sourcePoint" />
            <mxPoint x="560" y="190" as="targetPoint" />
          </mxGeometry>
        </mxCell>
        <mxCell id="gXy3dXkLph7QK6x0H68i-10" value="&lt;font style=&quot;font-size: 10px;&quot;&gt;Question + Options and Quiz Score&lt;/font&gt;" style="text;html=1;align=center;verticalAlign=middle;whiteSpace=wrap;rounded=0;" parent="1" vertex="1">
          <mxGeometry x="290" y="370" width="60" height="40" as="geometry" />
        </mxCell>
        <mxCell id="gXy3dXkLph7QK6x0H68i-11" value="" style="endArrow=classic;html=1;rounded=0;entryX=0.004;entryY=0.38;entryDx=0;entryDy=0;entryPerimeter=0;exitX=1;exitY=0.25;exitDx=0;exitDy=0;" parent="1" source="gXy3dXkLph7QK6x0H68i-8" target="gXy3dXkLph7QK6x0H68i-1" edge="1">
          <mxGeometry width="50" height="50" relative="1" as="geometry">
            <mxPoint x="410" y="190" as="sourcePoint" />
            <mxPoint x="410.05000000000007" y="319" as="targetPoint" />
          </mxGeometry>
        </mxCell>
        <mxCell id="gXy3dXkLph7QK6x0H68i-12" value="&lt;font style=&quot;font-size: 10px;&quot;&gt;Option selected&lt;/font&gt;" style="text;html=1;align=center;verticalAlign=middle;whiteSpace=wrap;rounded=0;" parent="1" vertex="1">
          <mxGeometry x="300" y="290" width="60" height="30" as="geometry" />
        </mxCell>
      </root>
    </mxGraphModel>
  </diagram>
</mxfile>
